<?xml version="1.0" encoding="UTF-8"?>
<svg width="32px" height="32px" viewBox="0 0 32 32" version="1.1" xmlns="http://www.w3.org/2000/svg" xmlns:xlink="http://www.w3.org/1999/xlink">
    <title>ic_check备份 3</title>
    <g id="页面-1" stroke="none" stroke-width="1" fill="none" fill-rule="evenodd">
        <g id="DramaBox-站外注销-已登录" transform="translate(-65, -2071)">
            <g id="编组-7" transform="translate(0, 320)">
                <g id="编组-2" transform="translate(0, 199)">
                    <g id="编组" transform="translate(0, 1520)">
                        <g id="ic_checkok" transform="translate(65, 32)">
                            <path d="M16,1 C24.2842712,1 31,7.71572875 31,16 C31,24.2842712 24.2842712,31 16,31 C7.71572875,31 1,24.2842712 1,16 C1,7.71572875 7.71572875,1 16,1 Z" id="形状" fill="#FF375F"></path>
                            <path d="M21.4642968,11.2502301 L13.9196875,18.3953125 L10.5356713,14.8382439 C9.94841358,14.2800707 9.01985833,14.3036482 8.46168507,14.8909059 C7.88428444,15.4983929 7.88428444,16.4518175 8.46168507,17.0593044 L12.6968098,21.5148218 L12.7227145,21.5540475 L12.7749269,21.6148778 L12.7902105,21.6313616 C13.248858,22.1155137 13.9676821,22.2243872 14.5413929,21.9204557 L14.6359375,21.863125 L14.6091988,21.8770006 L14.7148586,21.8113291 L14.7740936,21.7684781 L14.8595813,21.6920813 L23.4784427,13.5309498 C24.0880223,12.9534823 24.137952,11.9995441 23.5919881,11.3615948 L23.5503542,11.3151386 L23.4467769,11.2155497 C22.8757416,10.7161483 22.0189837,10.7247636 21.4642968,11.2502301 Z" id="路径" fill="#FFFFFF"></path>
                        </g>
                    </g>
                </g>
            </g>
        </g>
    </g>
</svg>